<svg id="Capa_1" data-name="Capa 1" xmlns="http://www.w3.org/2000/svg" viewBox="0 0 135.25 123.86"><defs><style>.cls-1,.cls-4,.cls-9{fill:#00a59d;}.cls-1{opacity:0.2;}.cls-10,.cls-11,.cls-12,.cls-2,.cls-5,.cls-7{fill:none;}.cls-10,.cls-11,.cls-12,.cls-2,.cls-3,.cls-5,.cls-6,.cls-7{stroke:#636363;stroke-linecap:round;}.cls-11,.cls-12,.cls-2,.cls-3,.cls-5{stroke-linejoin:round;}.cls-2{stroke-width:3.87px;}.cls-3,.cls-6,.cls-8{fill:#fff;}.cls-3{stroke-width:2.1px;}.cls-4{opacity:0.5;}.cls-5{stroke-width:2px;}.cls-10,.cls-6,.cls-7{stroke-miterlimit:10;}.cls-6,.cls-7{stroke-width:2.8px;}.cls-9{opacity:0.8;}.cls-10{stroke-width:6.72px;}.cls-11{stroke-width:1.57px;}.cls-12{stroke-width:1.32px;}</style></defs><title>Mesa de trabajo 28</title><circle class="cls-1" cx="64.43" cy="59.36" r="51.64"/><path class="cls-2" d="M121.43,69.31a57.42,57.42,0,1,1-11.53-45.59"/><circle class="cls-3" cx="121.43" cy="61" r="12.77"/><circle class="cls-4" cx="121.43" cy="61" r="10.66"/><path class="cls-5" d="M108.08,105.57A63.52,63.52,0,0,1,1.47,67.07,64.28,64.28,0,0,1,1,59.34"/><polygon class="cls-6" points="36.41 89.13 36.41 28.49 74.96 28.49 85.33 37.64 85.33 89.13 36.41 89.13"/><line class="cls-6" x1="44.04" y1="44.15" x2="77.71" y2="44.15"/><line class="cls-6" x1="44.04" y1="50.57" x2="77.71" y2="50.57"/><line class="cls-6" x1="44.04" y1="56.98" x2="77.71" y2="56.98"/><line class="cls-6" x1="44.04" y1="63.4" x2="77.71" y2="63.4"/><line class="cls-6" x1="44.04" y1="69.82" x2="77.71" y2="69.82"/><line class="cls-6" x1="44.04" y1="76.23" x2="77.71" y2="76.23"/><polyline class="cls-7" points="74.96 28.49 74.96 37.64 85.33 37.64"/><circle class="cls-8" cx="73.12" cy="53.63" r="19.68"/><circle class="cls-9" cx="73.12" cy="53.63" r="19.68"/><path class="cls-7" d="M83.3,71a20.12,20.12,0,1,1,7.22-7.22"/><path class="cls-7" d="M68.92,65.36a12.56,12.56,0,0,1-3.73-21.2"/><line class="cls-7" x1="85.99" y1="66.19" x2="107.82" y2="88.33"/><line class="cls-10" x1="95.59" y1="75.93" x2="107.82" y2="88.33"/><path class="cls-11" d="M125.79,62.45a5.54,5.54,0,1,0-8.73,0h0c.29.37,2.45,2.75,2.45,3.58h3.8c0-.83,2.16-3.21,2.45-3.58h0Z"/><rect class="cls-12" x="119.52" y="67.84" width="3.81" height="1.55"/><polyline class="cls-12" points="119.72 60.92 120.85 66.04 122.34 66.04"/><polyline class="cls-12" points="123.13 60.92 122.01 66.04 120.52 66.04"/></svg>