<svg id="Capa_1" data-name="Capa 1" xmlns="http://www.w3.org/2000/svg" viewBox="0 0 135.15 123.78"><defs><style>.cls-1,.cls-7{fill:#fff;}.cls-2,.cls-3,.cls-8{fill:#ffbc00;}.cls-2{opacity:0.3;}.cls-10,.cls-3,.cls-4,.cls-5,.cls-6,.cls-7,.cls-9{stroke:#636363;stroke-linecap:round;stroke-linejoin:round;}.cls-3,.cls-4,.cls-5{stroke-width:2.96px;}.cls-4{fill:#b7b7b7;}.cls-10,.cls-5,.cls-6,.cls-9{fill:none;}.cls-6{stroke-width:3.86px;}.cls-7{stroke-width:2.1px;}.cls-8{opacity:0.5;}.cls-9{stroke-width:1.57px;}.cls-10{stroke-width:2.31px;}</style></defs><title>Mesa de trabajo 26</title><circle class="cls-1" cx="64.92" cy="59.47" r="55.44"/><circle class="cls-2" cx="64.47" cy="59.25" r="51.54"/><path class="cls-3" d="M81,71a19.66,19.66,0,1,0-31,0h0l0,0c1,1.31,8.7,9.77,8.7,12.69h13.5c0-2.93,7.67-11.38,8.7-12.69l0,0Z"/><rect class="cls-4" x="58.74" y="87.47" width="13.52" height="5.48"/><polyline class="cls-5" points="59.45 65.56 63.44 83.72 68.75 83.72"/><polyline class="cls-5" points="71.55 65.56 67.57 83.72 62.27 83.72"/><line class="cls-5" x1="49.53" y1="23.47" x2="53.9" y2="34.04"/><line class="cls-5" x1="37.54" y1="73.62" x2="26.93" y2="78.02"/><line class="cls-5" x1="104.08" y1="46.06" x2="93.62" y2="50.4"/><line class="cls-5" x1="81.48" y1="23.47" x2="77.13" y2="33.98"/><line class="cls-5" x1="37.53" y1="50.46" x2="26.93" y2="46.06"/><line class="cls-5" x1="104.08" y1="78.02" x2="93.62" y2="73.69"/><path class="cls-6" d="M121.35,69.18a57.31,57.31,0,1,1-11.5-45.5"/><circle class="cls-7" cx="121.35" cy="60.88" r="12.75"/><circle class="cls-8" cx="121.35" cy="60.88" r="10.64"/><circle class="cls-9" cx="121.35" cy="60.84" r="5.3"/><path class="cls-9" d="M118.94,65.55v.71a2.12,2.12,0,0,0,2.42,2,2.23,2.23,0,0,0,2.51-2v-.73A5.09,5.09,0,0,1,118.94,65.55Z"/><path class="cls-9" d="M123.87,66.28h0a2.23,2.23,0,0,1-2.51,2,2.12,2.12,0,0,1-2.42-2,9.17,9.17,0,0,0-5.66,4.47,12.74,12.74,0,0,0,16.16,0A9.2,9.2,0,0,0,123.87,66.28Z"/><path class="cls-10" d="M108,105.37A63.4,63.4,0,0,1,1.62,66.94a64.39,64.39,0,0,1-.46-7.71"/></svg>