<svg id="Capa_1" data-name="Capa 1" xmlns="http://www.w3.org/2000/svg" xmlns:xlink="http://www.w3.org/1999/xlink" viewBox="0 0 135.25 125.06"><defs><style>.cls-1,.cls-13,.cls-14,.cls-3,.cls-6,.cls-7{fill:none;}.cls-10,.cls-2,.cls-5{fill:#9bc12b;}.cls-2{opacity:0.3;}.cls-11,.cls-12,.cls-13,.cls-14,.cls-3,.cls-4,.cls-6,.cls-7{stroke:#636363;stroke-linecap:round;stroke-linejoin:round;}.cls-3{stroke-width:3.87px;}.cls-12,.cls-4,.cls-9{fill:#fff;}.cls-4{stroke-width:2.1px;}.cls-5{opacity:0.5;}.cls-6{stroke-width:1.57px;fill-rule:evenodd;}.cls-7{stroke-width:2px;}.cls-8{clip-path:url(#clip-path);}.cls-10{opacity:0.9;}.cls-11{fill:#cecece;}.cls-11,.cls-12{stroke-width:2.53px;}.cls-13{stroke-width:4.83px;stroke-dasharray:1.61 9.67;}.cls-14{stroke-width:2.26px;}</style><clipPath id="clip-path"><circle class="cls-1" cx="64.44" cy="59.36" r="51.64"/></clipPath></defs><title>Mesa de trabajo 27</title><circle class="cls-2" cx="64.44" cy="59.36" r="51.64"/><path class="cls-3" d="M121.43,69.31a57.41,57.41,0,1,1-11.52-45.59"/><circle class="cls-4" cx="121.43" cy="61" r="12.77"/><circle class="cls-5" cx="121.43" cy="61" r="10.66"/><path class="cls-6" d="M114.6,65.74A20.61,20.61,0,0,0,123,67.5a16.91,16.91,0,0,0,2.79-.19,2.78,2.78,0,0,0,1-.34,1.17,1.17,0,0,0,.06-1.81h.1a1.18,1.18,0,0,0,0-2.35h.59a1.18,1.18,0,0,0,0-2.35,1.18,1.18,0,0,0,0-2.35h-5.27a.73.73,0,0,1-.73-.73l.37-2.44a1.16,1.16,0,0,0,.05-.35,1.17,1.17,0,0,0-2.31-.31l-.05.17a10.57,10.57,0,0,1-5,6Z"/><path class="cls-7" d="M108.08,105.57A63.5,63.5,0,0,1,1,59.34"/><g class="cls-8"><path class="cls-9" d="M80.38,26.69h-32a8,8,0,0,0-8,8V48a7.94,7.94,0,0,0,5.26,7.46l-1.61,5.26,9.27-4.75h4.06l7.12,10.4,6.81-10.4h4.06l9.27,4.75-1.61-5.26A7.94,7.94,0,0,0,88.33,48V34.65A8,8,0,0,0,80.38,26.69Z"/><path class="cls-10" d="M80.38,26.69h-32a8,8,0,0,0-8,8V48a7.94,7.94,0,0,0,5.26,7.46l-1.61,5.26,9.27-4.75h4.06l7.12,10.4,6.81-10.4h4.06l9.27,4.75-1.61-5.26A7.94,7.94,0,0,0,88.33,48V34.65A8,8,0,0,0,80.38,26.69Z"/><path class="cls-11" d="M50.47,100.29a32.73,32.73,0,0,1,1.81-3,15.65,15.65,0,0,0-9.8-14.49c-.17,2.87-2.54,4.55-5.46,4.55s-5.29-1.62-5.46-4.49a14.45,14.45,0,0,0-7.69,7.48c-1.34,2.79-2.12,10-2.12,10,13.86,10,27.1,10.62,27.1,10.62s-.19-7.27,1.61-10.71"/><path class="cls-11" d="M37,83.68a10.66,10.66,0,0,1-5-1.25l-.45.15c.16,2.88,2.54,4.69,5.46,4.69s5.3-1.81,5.46-4.69L42,82.43A10.65,10.65,0,0,1,37,83.68Z"/><circle class="cls-11" cx="37.02" cy="72.98" r="10.7"/><path class="cls-11" d="M80.79,100.47c-.14-.86-2.57-4.57-2.57-4.57a15.56,15.56,0,0,1,9.73-13c.17,2.87,2.54,4.49,5.46,4.49s5.29-1.68,5.46-4.55c5.73,2.19,9.8,7.73,9.8,17.54,0,0-5.1,11.55-26.13,9.26l.18-1.72a18.36,18.36,0,0,0-1.92-7.44"/><path class="cls-11" d="M93.41,83.68a10.68,10.68,0,0,1-5-1.25l-.44.15c.16,2.88,2.54,4.69,5.46,4.69s5.3-1.81,5.46-4.69l-.44-.15A10.67,10.67,0,0,1,93.41,83.68Z"/><circle class="cls-11" cx="93.41" cy="72.98" r="10.7"/><path class="cls-12" d="M82.71,107.67a22.6,22.6,0,0,0-1.92-7.2A16.68,16.68,0,0,0,71.65,92c-.18,3.2-2.83,4.86-6.08,4.86s-5.89-1.48-6.08-4.68a17.69,17.69,0,0,0-9,8.07,16.54,16.54,0,0,0-1.89,8.22s0,15.27,17,15.27S82.71,107.67,82.71,107.67Z"/><path class="cls-12" d="M65.57,92.55A11.85,11.85,0,0,1,60,91.16l-.5.17c.18,3.21,2.83,5.22,6.08,5.22s5.9-2,6.08-5.22l-.5-.17A11.86,11.86,0,0,1,65.57,92.55Z"/><circle class="cls-12" cx="65.57" cy="80.64" r="11.91"/><line class="cls-13" x1="51.85" y1="41.87" x2="76.92" y2="41.87"/><path class="cls-14" d="M80.38,26.69h-32a8,8,0,0,0-8,8V48a7.94,7.94,0,0,0,5.26,7.46l-1.61,5.26,9.27-4.75h4.06l7.12,10.4,6.81-10.4h4.06l9.27,4.75-1.61-5.26A7.94,7.94,0,0,0,88.33,48V34.65A8,8,0,0,0,80.38,26.69Z"/></g></svg>