<svg id="Capa_1" data-name="Capa 1" xmlns="http://www.w3.org/2000/svg" viewBox="0 0 135.25 123.86"><defs><style>.cls-1,.cls-4{fill:#9c43a3;}.cls-1{opacity:0.2;}.cls-11,.cls-12,.cls-2,.cls-5,.cls-6{fill:none;}.cls-10,.cls-11,.cls-12,.cls-2,.cls-3,.cls-5,.cls-6,.cls-7{stroke:#636363;stroke-linecap:round;stroke-linejoin:round;}.cls-2{stroke-width:3.87px;}.cls-3,.cls-7,.cls-8{fill:#fff;}.cls-3{stroke-width:2.1px;}.cls-4{opacity:0.5;}.cls-5{stroke-width:4.11px;}.cls-6{stroke-width:2px;}.cls-10,.cls-11,.cls-7{stroke-width:2.57px;}.cls-9{fill:#af3bbc;opacity:0.9;}.cls-10{fill:#cecece;}.cls-12{stroke-width:2.16px;}</style></defs><title>Mesa de trabajo 29</title><circle class="cls-1" cx="64.44" cy="59.36" r="51.64"/><path class="cls-2" d="M121.43,69.31a57.41,57.41,0,1,1-11.52-45.59"/><circle class="cls-3" cx="121.43" cy="61" r="12.77"/><circle class="cls-4" cx="121.43" cy="61" r="10.66"/><polyline class="cls-5" points="115.45 61.18 119.87 65.18 127.82 57.77"/><path class="cls-6" d="M108.08,105.57A63.52,63.52,0,0,1,1.47,67.07,64.28,64.28,0,0,1,1,59.34"/><polyline class="cls-7" points="57.27 39.46 35.59 52.13 64.54 69.19 92.88 52.13 80.74 44.88"/><polygon class="cls-8" points="53.16 32.76 62.95 48.73 68.87 52.2 91.21 38.41 78.71 17.23 53.16 32.76"/><polygon class="cls-9" points="53.16 32.76 62.95 48.73 68.87 52.2 91.21 38.41 78.71 17.23 53.16 32.76"/><polygon class="cls-7" points="92.88 84.01 92.88 52.13 64.54 69.19 64.54 101.44 92.88 84.01"/><polygon class="cls-10" points="35.59 84.61 35.59 52.13 64.54 69.19 64.54 101.44 35.59 84.61"/><line class="cls-11" x1="56.01" y1="44.66" x2="76.27" y2="56.54"/><polygon class="cls-12" points="53.16 32.76 62.95 48.73 68.87 52.2 91.21 38.41 78.71 17.23 53.16 32.76"/><polyline class="cls-11" points="78.52 18.07 73.98 38.71 54.28 33.08"/></svg>