<?xml version="1.0" encoding="utf-8"?>
<!-- Generator: Adobe Illustrator 16.0.0, SVG Export Plug-In . SVG Version: 6.00 Build 0)  -->
<!DOCTYPE svg PUBLIC "-//W3C//DTD SVG 1.1//EN" "http://www.w3.org/Graphics/SVG/1.1/DTD/svg11.dtd">
<svg version="1.1" id="Capa_1" xmlns="http://www.w3.org/2000/svg" xmlns:xlink="http://www.w3.org/1999/xlink" x="0px" y="0px"
	 width="1000px" height="500px" viewBox="0 0 1000 500" enable-background="new 0 0 1000 500" xml:space="preserve">
<g>
	<path fill="#FFFFFF" d="M145.689,278.448c0,16.38-5.172,28.448-15.517,38.793c-10.345,9.483-24.138,14.655-41.379,14.655H1.724
		V151.724h82.759c17.241,0,31.034,4.311,40.517,12.931c8.621,8.621,13.793,20.689,13.793,35.345s-6.034,26.724-17.241,35.345
		C137.069,243.965,145.689,258.621,145.689,278.448z M84.483,182.759H36.207v39.655h48.276c6.034,0,11.207-1.724,14.655-5.172
		c4.311-3.448,6.035-8.621,6.035-14.655c0-6.034-1.724-11.207-6.035-14.655C95.689,184.483,90.517,182.759,84.483,182.759z
		 M110.345,277.586c0-15.518-8.621-23.275-26.724-23.275H36.207v46.552h48.276C101.724,300,110.345,292.241,110.345,277.586z"/>
	<path fill="#FFFFFF" d="M275,295.689h-71.552l-12.069,36.207h-36.207l62.931-179.31h43.104l62.931,179.31h-36.207L275,295.689z
		 M264.655,263.793l-25-74.138l-25,74.138H264.655z"/>
	<path fill="#FFFFFF" d="M555.173,300v31.896H422.414V151.724h131.034v31.896h-97.414v37.931h82.759v31.896h-82.759v45.689h99.139
		V300z"/>
	<path fill="#FFFFFF" d="M613.793,138.793v192.241h-34.482V138.793H613.793z"/>
	<path fill="#FFFFFF" d="M680.173,151.724v31.896h-34.483v-31.896H680.173z M680.173,198.276v133.621h-34.483V198.276H680.173z"/>
	<path fill="#FFFFFF" d="M841.379,198.276V325c0,22.414-6.034,39.655-18.104,52.586c-12.931,12.069-29.31,18.966-50.861,18.966
		c-16.38,0-30.173-4.311-42.242-12.931C718.104,375,710.345,363.793,707.759,350h37.068c1.725,5.173,6.035,8.621,12.069,11.207
		c5.173,2.586,10.345,3.448,15.518,3.448c23.275,0,34.482-12.931,34.482-39.655v-6.034c-11.207,10.345-24.138,15.517-39.655,15.517
		c-17.241,0-32.759-6.896-44.827-19.827c-12.069-12.931-18.966-30.173-18.966-49.138c0-19.828,6.034-36.207,18.966-49.138
		c12.068-12.931,27.586-19.828,44.827-19.828c16.38,0,30.173,6.034,40.518,17.241v-15.517H841.379z M806.896,265.518
		c0-10.346-3.448-19.828-10.345-26.725c-6.896-7.758-14.655-11.207-24.138-11.207c-9.483,0-17.242,3.449-24.139,11.207
		c-6.896,7.759-10.345,16.379-10.345,27.586c0,10.346,3.448,18.966,10.345,26.725c6.896,6.896,14.655,11.207,24.139,11.207
		c9.482,0,17.241-3.448,24.138-11.207C803.448,284.482,806.896,275.862,806.896,265.518z"/>
	<path fill="#FFFFFF" d="M997.414,278.448H896.552c2.586,7.759,6.034,14.655,12.069,18.966c6.034,5.172,12.931,6.896,20.689,6.896
		c12.931,0,22.414-5.173,28.448-15.518h36.207c-4.311,13.793-11.207,25-23.276,32.759c-12.068,7.759-25,12.069-41.379,12.069
		c-18.966,0-34.483-6.896-48.276-20.69c-12.931-13.793-19.827-30.172-19.827-49.138c0-18.965,6.896-36.207,19.827-49.138
		c12.932-12.931,29.311-20.69,48.276-20.69c18.965,0,35.345,6.035,47.414,18.966c12.931,13.793,19.827,31.034,19.827,53.448
		C998.275,271.552,998.275,275,997.414,278.448z M897.414,250h66.379c-1.725-7.759-6.034-13.793-12.068-18.104
		c-6.035-4.311-12.932-6.896-21.553-6.896c-7.758,0-14.654,2.586-20.689,6.896C904.311,236.207,900,242.241,897.414,250z"/>
</g>
</svg>
